<?xml version="1.0" encoding="UTF-8" standalone="no"?>
<svg
   height="40"
   viewBox="0 -960 960 960"
   width="40"
   version="1.1"
   id="svg4"
   sodipodi:docname="density_more.svg"
   inkscape:version="1.2.1 (9c6d41e410, 2022-07-14)"
   xmlns:inkscape="http://www.inkscape.org/namespaces/inkscape"
   xmlns:sodipodi="http://sodipodi.sourceforge.net/DTD/sodipodi-0.dtd"
   xmlns="http://www.w3.org/2000/svg"
   xmlns:svg="http://www.w3.org/2000/svg">
  <defs
     id="defs8" />
  <sodipodi:namedview
     id="namedview6"
     pagecolor="#ffffff"
     bordercolor="#000000"
     borderopacity="0.25"
     inkscape:showpageshadow="2"
     inkscape:pageopacity="0.0"
     inkscape:pagecheckerboard="0"
     inkscape:deskcolor="#d1d1d1"
     showgrid="false"
     inkscape:zoom="14.248202"
     inkscape:cx="13.510477"
     inkscape:cy="25.196162"
     inkscape:window-width="1920"
     inkscape:window-height="1009"
     inkscape:window-x="-8"
     inkscape:window-y="-8"
     inkscape:window-maximized="1"
     inkscape:current-layer="svg4" />
  <path
     d="m 705.11746,-362.4971 q -18.96596,-15.09617 -21.54713,-38.9558 -2.58046,-23.85971 12.51571,-42.82567 15.09616,-18.96596 38.8127,-21.66039 23.71723,-2.6945 42.68319,12.40166 18.96556,15.09586 21.80286,38.92675 2.83761,23.83049 -12.25856,42.79645 -15.09616,18.96596 -39.06984,21.6896 -23.97337,2.72326 -42.93893,-12.3726 z"
     id="path229"
     style="stroke-width:0.5" />
  <path
     d="m 589.50765,-626.45463 q -18.96596,-15.09617 -21.66008,-38.81309 -2.69482,-23.71684 12.40135,-42.6828 15.09616,-18.96596 38.92705,-21.80326 23.8305,-2.83761 42.79646,12.25856 18.96596,15.09617 21.6896,39.06985 2.72364,23.97367 -12.37253,42.93963 -15.09616,18.96596 -38.95587,21.54642 -23.86003,2.58086 -42.82598,-12.51531 z"
     id="path227"
     style="stroke-width:0.5" />
  <path
     d="m 356.77863,-459.1273 q -18.96596,-15.09617 -21.66008,-38.81309 -2.69482,-23.71684 12.40135,-42.6828 15.09617,-18.96596 38.92706,-21.80326 23.83049,-2.83761 42.79645,12.25856 18.96596,15.09617 21.6896,39.06985 2.72365,23.97368 -12.37252,42.93963 -15.09617,18.96596 -38.95588,21.54642 -23.86002,2.58086 -42.82598,-12.51531 z"
     id="path227-9"
     style="stroke-width:0.5" />
  <path
     d="m 442.22409,-300.5411 q -18.96596,-15.09617 -21.66007,-38.81309 -2.69482,-23.71684 12.40134,-42.6828 15.09617,-18.96596 38.92706,-21.80326 23.8305,-2.83761 42.79645,12.25856 18.96596,15.09617 21.68961,39.06985 2.72364,23.97367 -12.37253,42.93963 -15.09617,18.96596 -38.95588,21.54642 -23.86002,2.58086 -42.82598,-12.51531 z"
     id="path227-8"
     style="stroke-width:0.5" />
  <path
     d="m 160.61161,-492.97997 q -18.96596,-15.09617 -21.66008,-38.81309 -2.69482,-23.71684 12.40135,-42.6828 15.09617,-18.96596 38.92705,-21.80325 23.8305,-2.83762 42.79646,12.25855 18.96596,15.09617 21.6896,39.06985 2.72364,23.97368 -12.37252,42.93963 -15.09617,18.96596 -38.95588,21.54642 -23.86003,2.58086 -42.82598,-12.51531 z"
     id="path227-8-5"
     style="stroke-width:0.5" />
  <path
     d="m 584.77311,-166.54079 q -18.96595,-15.09617 -21.80325,-38.92706 -2.83761,-23.83049 12.25855,-42.79645 15.09617,-18.96596 39.06985,-21.6896 23.97368,-2.72365 42.93963,12.37252 18.96596,15.09617 21.54643,38.95588 2.58085,23.86002 -12.51532,42.82598 -15.09617,18.96595 -38.81309,21.66007 -23.71684,2.69482 -42.6828,-12.40134 z"
     id="path2"
     style="stroke-width:0.5" />
  <path
     d="m 362.14255,-698.72549 q -18.96596,-15.09617 -21.66007,-38.81309 -2.69483,-23.71685 12.40134,-42.6828 15.09617,-18.96596 38.92706,-21.80326 23.83049,-2.83761 42.79645,12.25856 18.96596,15.09617 21.6896,39.06984 2.72365,23.97368 -12.37252,42.93964 -15.09617,18.96596 -38.95588,21.54642 -23.86002,2.58085 -42.82598,-12.51531 z"
     id="path227-7"
     style="stroke-width:0.5" />
  <path
     d="m 226.95248,-258.42681 q -18.96596,-15.09617 -21.66007,-38.81309 -2.69483,-23.71685 12.40134,-42.6828 15.09617,-18.96596 38.92706,-21.80326 23.83049,-2.83761 42.79645,12.25856 18.96596,15.09617 21.6896,39.06984 2.72365,23.97368 -12.37252,42.93964 -15.09617,18.96596 -38.95588,21.54642 -23.86002,2.58085 -42.82598,-12.51531 z"
     id="path227-83"
     style="stroke-width:0.5" />
  <path
     d="m 547.53907,-456.89396 q -18.96596,-15.09616 -21.66008,-38.81308 -2.69482,-23.71685 12.40135,-42.6828 15.09617,-18.96596 38.92705,-21.80326 23.8305,-2.83761 42.79646,12.25856 18.96596,15.09616 21.6896,39.06984 2.72364,23.97368 -12.37252,42.93964 -15.09617,18.96595 -38.95588,21.54642 -23.86003,2.58085 -42.82598,-12.51532 z"
     id="path227-83-6"
     style="stroke-width:0.5" />
</svg>
