<?xml version="1.0" encoding="UTF-8" standalone="no"?>
<svg
   height="40"
   viewBox="0 -960 960 960"
   width="40"
   version="1.1"
   id="svg4"
   sodipodi:docname="density_less.svg"
   inkscape:version="1.2.1 (9c6d41e410, 2022-07-14)"
   xmlns:inkscape="http://www.inkscape.org/namespaces/inkscape"
   xmlns:sodipodi="http://sodipodi.sourceforge.net/DTD/sodipodi-0.dtd"
   xmlns="http://www.w3.org/2000/svg"
   xmlns:svg="http://www.w3.org/2000/svg">
  <defs
     id="defs8" />
  <sodipodi:namedview
     id="namedview6"
     pagecolor="#ffffff"
     bordercolor="#000000"
     borderopacity="0.25"
     inkscape:showpageshadow="2"
     inkscape:pageopacity="0.0"
     inkscape:pagecheckerboard="0"
     inkscape:deskcolor="#d1d1d1"
     showgrid="false"
     inkscape:zoom="14.248202"
     inkscape:cx="15.265084"
     inkscape:cy="13.896491"
     inkscape:window-width="1920"
     inkscape:window-height="1009"
     inkscape:window-x="-8"
     inkscape:window-y="-8"
     inkscape:window-maximized="1"
     inkscape:current-layer="svg4" />
  <path
     d="m 439.0995,-650.0775 q -24.2405,0 -41.119,-17.0605 -16.878,-17.061 -16.878,-41.3015 0,-24.2405 16.878,-41.1185 16.8785,-16.8785 41.119,-16.8785 24.24,0 41.301,16.8785 17.061,16.878 17.061,41.1185 0,24.2405 -17.061,41.3015 -17.061,17.0605 -41.301,17.0605 z"
     id="path229"
     style="stroke-width:0.5" />
  <path
     d="m 285.40675,-350.48675 q -24.2405,0 -41.1185,-16.8785 -16.8785,-16.878 -16.8785,-41.1185 0,-24.2405 16.8785,-41.3015 16.878,-17.061 41.1185,-17.061 24.2405,0 41.3015,17.061 17.061,17.061 17.061,41.3015 0,24.2405 -17.061,41.1185 -17.061,16.8785 -41.3015,16.8785 z"
     id="path227"
     style="stroke-width:0.5" />
  <path
     d="m 497.27875,-421.82025 q -24.2405,0 -41.1185,-16.8785 -16.8785,-16.878 -16.8785,-41.1185 0,-24.2405 16.8785,-41.3015 16.878,-17.061 41.1185,-17.061 24.2405,0 41.3015,17.061 17.061,17.061 17.061,41.3015 0,24.2405 -17.061,41.1185 -17.061,16.8785 -41.3015,16.8785 z"
     id="path227-9"
     style="stroke-width:0.5" />
  <path
     d="m 674.22775,-555.74955 q -24.2405,0 -41.1185,-16.8785 -16.8785,-16.878 -16.8785,-41.1185 0,-24.2405 16.8785,-41.3015 16.878,-17.061 41.1185,-17.061 24.2405,0 41.3015,17.061 17.061,17.061 17.061,41.3015 0,24.2405 -17.061,41.1185 -17.061,16.8785 -41.3015,16.8785 z"
     id="path227-8"
     style="stroke-width:0.5" />
  <path
     d="m 674.59325,-227.40975 q -24.2405,0 -41.3015,-16.8785 -17.061,-16.878 -17.061,-41.1185 0,-24.2405 17.061,-41.3015 17.061,-17.061 41.3015,-17.061 24.2405,0 41.1185,17.061 16.8785,17.061 16.8785,41.3015 0,24.2405 -16.8785,41.1185 -16.878,16.8785 -41.1185,16.8785 z"
     id="path2"
     style="stroke-width:0.5" />
</svg>
