<?xml version="1.0" encoding="UTF-8" standalone="no"?>
<svg
   height="40"
   viewBox="0 -960 960 960"
   width="40"
   version="1.1"
   id="svg4"
   sodipodi:docname="density_most.svg"
   inkscape:version="1.2.1 (9c6d41e410, 2022-07-14)"
   xmlns:inkscape="http://www.inkscape.org/namespaces/inkscape"
   xmlns:sodipodi="http://sodipodi.sourceforge.net/DTD/sodipodi-0.dtd"
   xmlns="http://www.w3.org/2000/svg"
   xmlns:svg="http://www.w3.org/2000/svg">
  <defs
     id="defs8" />
  <sodipodi:namedview
     id="namedview6"
     pagecolor="#ffffff"
     bordercolor="#000000"
     borderopacity="0.25"
     inkscape:showpageshadow="2"
     inkscape:pageopacity="0.0"
     inkscape:pagecheckerboard="0"
     inkscape:deskcolor="#d1d1d1"
     showgrid="false"
     inkscape:zoom="10.075"
     inkscape:cx="24.26799"
     inkscape:cy="17.667494"
     inkscape:window-width="1920"
     inkscape:window-height="1009"
     inkscape:window-x="-8"
     inkscape:window-y="-8"
     inkscape:window-maximized="1"
     inkscape:current-layer="svg4" />
  <path
     d="m 758.17442,-130.78139 q -24.2405,0 -41.119,-17.0604 -16.878,-17.061 -16.878,-41.30149 0,-24.24049 16.878,-41.11849 16.8785,-16.8785 41.119,-16.8785 24.24,0 41.301,16.8785 17.0611,16.878 17.0611,41.11849 0,24.24049 -17.0611,41.30149 -17.061,17.0604 -41.301,17.0604 z"
     id="path229"
     style="stroke-width:0.5" />
  <path
     d="m 615.81384,-330.83988 q -24.2405,0 -41.1185,-16.8785 -16.8785,-16.878 -16.8785,-41.1185 0,-24.2405 16.8785,-41.3015 16.878,-17.061 41.1185,-17.061 24.2405,0 41.3015,17.061 17.061,17.061 17.061,41.3015 0,24.2405 -17.061,41.1185 -17.061,16.8785 -41.3015,16.8785 z"
     id="path227"
     style="stroke-width:0.5" />
  <path
     d="m 699.08718,-562.71113 q -24.2405,0 -41.1185,-16.8786 -16.8785,-16.878 -16.8785,-41.1185 0,-24.2405 16.8785,-41.3015 16.878,-17.0611 41.1185,-17.0611 24.24045,0 41.30145,17.0611 17.0609,17.061 17.0609,41.3015 0,24.2405 -17.0609,41.1185 -17.061,16.8786 -41.30145,16.8786 z"
     id="path227-9"
     style="stroke-width:0.5" />
  <path
     d="m 831.17999,-359.06437 q -24.2405,0 -41.1184,-16.8785 -16.8785,-16.878 -16.8785,-41.1185 0,-24.2405 16.8785,-41.3015 16.8779,-17.061 41.1184,-17.061 24.2406,0 41.3016,17.061 17.061,17.061 17.061,41.3015 0,24.2405 -17.061,41.1185 -17.061,16.8785 -41.3016,16.8785 z"
     id="path227-8"
     style="stroke-width:0.5" />
  <path
     d="m 304.73786,-559.02873 q -24.2405,0 -41.30151,-16.8785 -17.061,-16.87777 -17.061,-41.11827 0,-24.2406 17.061,-41.3016 17.06101,-17.061 41.30151,-17.061 24.24049,0 41.11851,17.061 16.87851,17.061 16.87851,41.3016 0,24.2405 -16.87851,41.11827 -16.87802,16.8785 -41.11851,16.8785 z"
     id="path2"
     style="stroke-width:0.5" />
  <path
     d="m 146.43418,-686.4024 q -24.2405,0 -41.30151,-16.8785 -17.061008,-16.87777 -17.061008,-41.11827 0,-24.2406 17.061008,-41.3016 17.06101,-17.061 41.30151,-17.061 24.24049,0 41.11851,17.061 16.87851,17.061 16.87851,41.3016 0,24.2405 -16.87851,41.11827 -16.87802,16.8785 -41.11851,16.8785 z"
     id="path2-4"
     style="stroke-width:0.5" />
  <path
     d="m 501.13164,-493.30115 q -24.24044,0 -41.11844,-16.8785 -16.87852,-16.87801 -16.87852,-41.11851 0,-24.24049 16.87852,-41.30149 16.878,-17.061 41.11844,-17.061 24.2404,0 41.3013,17.061 17.0611,17.061 17.0611,41.30149 0,24.2405 -17.0611,41.11852 -17.0609,16.8785 -41.3013,16.87849 z"
     id="path227-7"
     style="stroke-width:0.5" />
  <path
     d="m 548.03944,-720.43218 q -24.24052,0 -41.11851,-16.8785 -16.8785,-16.8781 -16.8785,-41.1185 0,-24.2406 16.8785,-41.3017 16.87798,-17.061 41.11851,-17.061 24.2405,0 41.3015,17.061 17.06101,17.0611 17.06101,41.3017 0,24.2404 -17.06101,41.1185 -17.061,16.8785 -41.3015,16.8785 z"
     id="path227-83"
     style="stroke-width:0.5" />
  <path
     d="m 526.2089,-98.958713 q -24.24051,0 -41.11851,-16.878487 -16.87849,-16.878 -16.87849,-41.11842 0,-24.24046 16.87849,-41.3016 16.878,-17.06092 41.11851,-17.06092 24.2405,0 41.3016,17.06092 17.061,17.06114 17.061,41.3016 0,24.24042 -17.061,41.11842 -17.0611,16.878497 -41.3016,16.878487 z"
     id="path227-83-0"
     style="stroke-width:0.5" />
  <path
     d="m 191.39881,-176.27585 q -24.24052,0 -41.11852,-16.8784 -16.8785,-16.87809 -16.8785,-41.1186 0,-24.2403 16.8785,-41.3013 16.878,-17.061 41.11852,-17.061 24.24047,0 41.30149,17.061 17.06099,17.061 17.06099,41.3013 0,24.24051 -17.06099,41.1186 -17.06102,16.8784 -41.30149,16.8784 z"
     id="path227-83-8"
     style="stroke-width:0.5" />
  <path
     d="m 409.50513,-280.69066 q -24.2405,0 -41.1185,-16.8785 -16.8784,-16.8778 -16.8784,-41.11851 0,-24.2405 16.8784,-41.30149 16.878,-17.061 41.1185,-17.061 24.2405,0 41.3016,17.061 17.061,17.06099 17.061,41.30149 0,24.2407 -17.061,41.1185 -17.0611,16.87851 -41.3016,16.87851 z"
     id="path227-83-84"
     style="stroke-width:0.5" />
  <path
     d="m 347.25133,-741.80899 q -24.2404,0 -41.1185,-16.8785 -16.8785,-16.878 -16.8785,-41.1185 0,-24.2405 16.8785,-41.3015 16.8781,-17.061 41.1185,-17.061 24.2405,0 41.3015,17.061 17.061,17.061 17.061,41.3015 0,24.2405 -17.061,41.1185 -17.061,16.8785 -41.3015,16.8785 z"
     id="path227-83-2"
     style="stroke-width:0.5" />
  <path
     d="m 229.6238,-378.12812 q -24.24052,0 -41.11851,-16.8785 -16.87851,-16.878 -16.87851,-41.1185 0,-24.2405 16.87851,-41.3015 16.87799,-17.061 41.11851,-17.061 24.2405,0 41.3015,17.061 17.06103,17.061 17.06103,41.3015 0,24.2405 -17.06103,41.1185 -17.061,16.8785 -41.3015,16.8785 z"
     id="path227-83-7"
     style="stroke-width:0.5" />
</svg>
